<?xml version="1.0" standalone="no"?>
<!DOCTYPE svg PUBLIC "-//W3C//DTD SVG 20010904//EN"
 "http://www.w3.org/TR/2001/REC-SVG-20010904/DTD/svg10.dtd">
<svg version="1.0" xmlns="http://www.w3.org/2000/svg"
 width="1116.000000pt" height="1116.000000pt" viewBox="0 0 1116.000000 1116.000000"
 preserveAspectRatio="xMidYMid meet">
<metadata>
Created by potrace 1.14, written by Peter Selinger 2001-2017
</metadata>
<g transform="translate(0.000000,1116.000000) scale(0.100000,-0.100000)"
fill="#000000" stroke="none">
<path d="M5309 11146 c-2 -2 -56 -7 -119 -11 -63 -4 -128 -8 -145 -10 -16 -2
-59 -7 -95 -11 -35 -3 -71 -7 -80 -9 -8 -1 -40 -6 -70 -10 -30 -4 -58 -13 -62
-19 -6 -8 -8 -8 -8 0 0 9 -18 8 -67 -1 -38 -7 -81 -15 -98 -18 -55 -10 -89
-17 -140 -28 -27 -6 -59 -12 -70 -15 -11 -2 -83 -20 -160 -40 -77 -20 -159
-41 -182 -47 -24 -6 -43 -14 -43 -19 0 -5 -4 -7 -8 -4 -12 7 -83 -19 -75 -28
4 -4 0 -4 -9 -1 -15 6 -131 -32 -293 -95 -44 -18 -95 -37 -112 -43 -18 -5 -33
-13 -33 -17 0 -3 -8 -6 -17 -7 -56 -4 -571 -267 -736 -375 -32 -21 -60 -38
-63 -38 -3 0 -60 -37 -127 -82 -208 -139 -433 -312 -612 -471 -94 -84 -428
-419 -500 -502 -74 -86 -249 -306 -293 -367 -68 -97 -159 -227 -169 -244 -7
-10 -38 -59 -69 -109 -54 -86 -67 -107 -119 -200 -13 -22 -37 -65 -54 -95 -51
-91 -169 -336 -232 -483 -49 -116 -156 -397 -163 -432 -1 -5 -16 -55 -33 -110
-51 -163 -112 -404 -137 -541 -19 -99 -28 -149 -31 -177 -3 -18 -7 -43 -10
-56 -2 -14 -7 -47 -10 -75 -3 -28 -8 -58 -10 -66 -2 -8 -7 -48 -10 -88 -4 -41
-8 -82 -10 -92 -25 -130 -25 -896 0 -1060 2 -14 6 -54 10 -90 14 -141 52 -381
86 -540 32 -152 119 -479 149 -560 5 -14 25 -72 46 -130 76 -219 137 -365 246
-590 64 -133 213 -408 227 -420 4 -3 18 -27 31 -53 14 -26 33 -57 43 -67 9
-11 17 -22 17 -25 0 -5 111 -176 120 -185 3 -3 28 -36 55 -75 26 -38 54 -77
61 -85 8 -8 59 -72 114 -143 59 -73 106 -124 112 -121 6 4 8 2 4 -4 -3 -6 8
-26 26 -46 18 -20 51 -56 73 -82 104 -120 400 -406 541 -521 22 -17 48 -40 59
-50 81 -76 558 -413 585 -413 5 0 10 -4 10 -8 0 -5 15 -16 32 -25 18 -9 42
-23 53 -29 95 -62 528 -288 549 -288 3 0 33 -13 68 -29 171 -79 485 -194 507
-186 9 3 12 3 8 -2 -5 -4 18 -15 50 -24 32 -10 98 -29 147 -44 49 -14 95 -24
103 -21 8 3 12 2 9 -3 -3 -5 11 -12 32 -17 20 -4 42 -8 47 -10 19 -5 150 -35
170 -38 11 -3 30 -7 41 -9 12 -3 37 -8 55 -11 19 -3 45 -8 59 -11 14 -3 45 -8
70 -11 25 -3 47 -8 50 -9 3 -2 33 -7 65 -10 33 -4 97 -13 142 -19 52 -8 89 -9
99 -3 12 7 15 6 10 -2 -5 -7 5 -11 31 -12 61 -2 145 -8 183 -13 19 -2 41 1 49
7 12 9 13 9 7 0 -5 -10 13 -13 81 -14 48 -1 123 -2 166 -3 44 0 81 2 84 7 2 4
12 4 21 -1 9 -4 35 -7 57 -6 22 1 79 3 128 4 56 1 85 5 81 12 -4 6 2 5 15 -1
12 -7 25 -10 30 -7 5 3 42 8 82 11 139 9 204 15 234 22 17 3 44 7 60 8 17 1
50 5 75 9 25 4 59 10 75 12 17 2 53 9 80 14 28 5 66 12 85 15 30 5 81 16 143
31 9 2 27 6 40 9 96 20 326 80 357 92 8 4 17 7 20 7 3 1 11 5 18 9 6 5 12 6
12 3 0 -4 199 60 250 81 8 3 20 7 25 9 6 1 21 6 35 12 14 5 28 10 32 11 4 1
39 15 78 32 77 32 122 51 130 54 51 18 315 147 321 157 3 5 8 9 10 8 8 -4 59
13 59 19 0 4 20 15 45 26 25 11 45 23 45 28 0 4 5 7 11 7 6 0 54 26 107 58 54
31 105 60 115 64 11 5 15 13 11 19 -4 8 -3 9 5 5 11 -7 212 117 219 136 2 4 9
8 16 8 7 0 21 8 32 18 11 9 42 33 69 51 28 19 52 37 55 41 3 3 32 25 65 50 67
50 67 49 155 122 85 69 115 95 162 139 21 20 38 35 38 34 0 -2 13 9 28 23 159
152 201 196 195 206 -3 6 -2 8 2 3 8 -7 107 90 219 216 70 79 77 88 69 101 -3
5 -1 6 4 3 6 -4 26 12 44 35 19 23 39 46 44 52 6 6 24 29 40 51 17 22 32 42
35 45 12 12 122 164 210 290 25 36 80 122 80 125 0 2 17 30 38 62 21 32 49 78
62 103 14 25 29 52 36 60 27 37 94 172 89 181 -4 5 0 12 9 15 13 5 25 26 85
153 11 24 18 48 14 54 -3 6 -2 7 4 4 12 -8 76 140 67 155 -4 7 -3 8 4 4 11 -6
16 6 13 27 0 4 3 7 9 7 5 0 10 6 10 13 0 6 7 25 15 41 9 16 13 36 11 43 -3 7
-2 13 3 13 10 0 41 75 37 91 0 3 5 13 12 22 8 9 11 20 8 26 -3 5 -2 11 4 13 5
1 11 14 12 28 2 14 7 28 11 31 5 3 10 15 12 25 2 10 4 20 5 22 2 1 3 5 5 10 1
4 4 14 7 22 18 46 27 83 22 91 -3 5 -1 9 3 9 6 0 42 102 48 140 1 3 6 23 13
44 6 22 9 43 6 48 -3 4 -1 8 4 8 6 0 52 174 53 205 1 2 7 31 15 64 7 33 16 73
19 88 3 15 7 41 10 57 3 15 7 47 9 71 2 24 6 47 9 52 6 9 15 63 22 129 2 21 7
55 10 74 3 19 8 69 10 110 3 41 5 75 6 75 0 0 2 11 4 25 8 76 8 107 0 119 -5
10 -4 12 3 7 9 -5 12 20 13 91 0 54 2 162 2 241 1 78 -2 142 -6 142 -4 0 -3 9
3 19 7 14 7 22 0 26 -6 4 -7 11 -3 18 6 10 6 37 -2 147 -9 138 -17 228 -20
249 -3 14 -7 54 -11 90 -3 36 -8 69 -10 73 -2 3 -6 28 -9 55 -6 57 -12 99 -20
133 -3 14 -7 41 -10 60 -3 19 -9 52 -14 73 -5 20 -7 37 -4 37 3 0 0 7 -7 15
-7 8 -10 15 -8 15 3 0 1 19 -3 43 -5 23 -11 53 -14 67 -3 14 -9 41 -15 60 -53
192 -82 300 -87 322 -3 15 -9 25 -14 22 -5 -3 -6 1 -4 8 6 16 -69 241 -77 232
-3 -3 -6 1 -5 8 1 43 -3 51 -20 37 -15 -11 -16 -11 -5 1 14 17 16 44 2 35 -5
-3 -7 0 -4 8 3 8 1 18 -5 22 -6 3 -11 15 -11 26 0 10 -4 27 -9 37 -21 37 -61
135 -61 147 0 7 -7 18 -15 25 -8 7 -15 19 -15 28 0 20 -214 448 -235 468 -8 8
-18 26 -21 40 -3 13 -10 24 -15 24 -5 0 -9 4 -9 10 0 14 -159 273 -190 307 -6
7 -20 28 -31 48 -12 19 -25 35 -30 35 -5 0 -9 5 -9 12 0 11 -95 142 -178 246
-30 36 -37 40 -51 30 -14 -12 -14 -11 -2 5 12 15 12 20 -3 35 -9 9 -37 42 -62
72 -25 30 -50 54 -55 53 -5 -2 -8 1 -6 6 4 14 -85 111 -96 104 -5 -3 -7 -1 -4
5 7 11 -223 247 -357 367 -43 39 -84 75 -90 80 -46 42 -145 122 -216 176 -47
35 -87 66 -90 69 -22 23 -95 68 -103 63 -6 -3 -7 -1 -3 5 4 6 -4 16 -16 23
-13 7 -25 15 -28 18 -18 21 -103 70 -113 65 -7 -4 -9 -3 -4 1 10 12 -171 128
-185 119 -7 -4 -8 -3 -4 4 4 7 -2 16 -16 22 -13 6 -39 20 -58 32 -84 51 -158
87 -165 80 -5 -4 -6 -2 -2 3 5 10 -291 164 -301 157 -3 -2 -8 1 -12 8 -4 6
-13 12 -21 14 -8 1 -36 13 -64 26 -105 49 -190 80 -203 75 -7 -2 -11 -1 -8 3
4 7 -40 28 -74 37 -3 1 -12 5 -20 8 -49 21 -104 36 -113 30 -5 -3 -7 -2 -4 4
8 12 -69 37 -85 27 -6 -4 -8 -3 -5 3 6 10 -15 17 -269 88 -138 39 -135 38
-267 65 -54 11 -104 17 -109 14 -6 -4 -8 -3 -5 2 3 6 -42 18 -106 29 -62 10
-119 20 -127 22 -8 2 -35 5 -59 7 -24 3 -60 7 -80 10 -20 4 -60 8 -90 11 -29
3 -57 8 -62 10 -4 3 -11 0 -15 -6 -4 -7 -9 -8 -13 -1 -3 6 -62 13 -131 17 -69
4 -128 9 -132 11 -4 3 -17 0 -29 -7 -16 -8 -20 -8 -14 1 9 14 -440 12 -469 -2
-13 -7 -16 -7 -12 1 7 10 -6 16 -15 7z m3655 -1212 c3 -8 2 -12 -4 -9 -6 3
-10 10 -10 16 0 14 7 11 14 -7z m1403 -1619 c0 -8 -4 -12 -9 -9 -5 3 -6 10 -3
15 9 13 12 11 12 -6z m80 -150 c0 -8 -4 -12 -9 -9 -5 3 -6 10 -3 15 9 13 12
11 12 -6z m639 -2285 c0 -12 -4 -16 -9 -11 -5 5 -6 14 -3 20 10 15 12 14 12
-9z m39 -208 c-3 -3 -11 0 -18 7 -9 10 -8 11 6 5 10 -3 15 -9 12 -12z m-65
-146 c0 -2 -8 -10 -17 -17 -16 -13 -17 -12 -4 4 13 16 21 21 21 13z m-139
-1173 c13 -16 12 -17 -3 -4 -10 7 -18 15 -18 17 0 8 8 3 21 -13z m-186 -673
c-3 -5 -12 -10 -18 -10 -7 0 -6 4 3 10 19 12 23 12 15 0z m-170 -559 c3 -5 2
-12 -3 -15 -5 -3 -9 1 -9 9 0 17 3 19 12 6z m-35 -41 c0 -5 -5 -10 -11 -10 -5
0 -7 5 -4 10 3 6 8 10 11 10 2 0 4 -4 4 -10z m-1700 -2000 c0 -5 -2 -10 -4
-10 -3 0 -8 5 -11 10 -3 6 -1 10 4 10 6 0 11 -4 11 -10z"/>
</g>
</svg>
